<svg width="14" height="15" viewBox="0 0 14 15" fill="none" xmlns="http://www.w3.org/2000/svg">
<path d="M13.2824 1.217C13.0554 0.989939 12.7859 0.809821 12.4893 0.686933C12.1927 0.564045 11.8748 0.500795 11.5537 0.500795C11.2326 0.500795 10.9147 0.564045 10.6181 0.686933C10.3215 0.809821 10.0519 0.989939 9.82495 1.217L1.17845 9.865C0.926295 10.117 0.752319 10.4365 0.677446 10.785L0.0109461 13.895C-0.00663054 13.9767 -0.00346029 14.0615 0.0201672 14.1416C0.0437946 14.2217 0.087126 14.2947 0.146202 14.3537C0.205279 14.4128 0.278217 14.4562 0.358353 14.4798C0.43849 14.5034 0.523269 14.5066 0.604946 14.489L3.71495 13.8225C4.06348 13.7476 4.38295 13.5736 4.63495 13.3215L13.2824 4.674C13.7407 4.2155 13.9982 3.59377 13.9982 2.9455C13.9982 2.29723 13.7407 1.6755 13.2824 1.217ZM10.5324 1.924C10.8058 1.66545 11.1693 1.52375 11.5456 1.52902C11.9218 1.53429 12.2812 1.68613 12.5472 1.95224C12.8132 2.21834 12.965 2.57773 12.9702 2.95398C12.9754 3.33024 12.8336 3.69367 12.5749 3.967L12.1249 4.417L10.0819 2.3745L10.5324 1.924ZM9.37445 3.0815L11.4174 5.1245L3.92845 12.615C3.81256 12.7308 3.66567 12.8107 3.50545 12.845L1.14995 13.35L1.65495 10.995C1.68924 10.8348 1.76911 10.6879 1.88495 10.572L9.37445 3.0815Z" fill="#0098DA"/>
</svg>
