<svg width="17" height="17" viewBox="0 0 17 17" fill="none" xmlns="http://www.w3.org/2000/svg">
<path d="M9.80073 15.4975C10.635 15.8507 11.5601 15.9292 12.442 15.7214C13.3238 15.5137 14.1166 15.0306 14.7055 14.3421L15.322 13.7231C15.5912 13.5074 15.7666 13.1961 15.8114 12.8542C15.8562 12.5122 15.7671 12.1662 15.5626 11.8885L13.5677 9.89599C13.2902 9.69124 12.9444 9.60169 12.6025 9.64607C12.2605 9.69044 11.949 9.86531 11.7331 10.1341C11.5172 10.4022 11.2061 10.5765 10.8648 10.6209C10.5235 10.6653 10.1782 10.5762 9.90099 10.3722L6.708 7.18671C6.50326 6.9093 6.41371 6.56346 6.45808 6.22154C6.50246 5.87961 6.67732 5.56809 6.9461 5.35213C7.21526 5.13652 7.39061 4.82517 7.43545 4.48323C7.4803 4.14129 7.39116 3.79526 7.1867 3.51754L5.19171 1.52255C4.91399 1.31809 4.56796 1.22895 4.22602 1.2738C3.88408 1.31864 3.57273 1.49399 3.35712 1.76316L2.74309 2.37468C2.05676 2.96513 1.57505 3.75775 1.36704 4.63889C1.15902 5.52002 1.23539 6.4444 1.58519 7.27945C3.60706 10.6514 6.42877 13.4731 9.80073 15.495V15.4975Z" stroke="#2C2E35" stroke-width="2" stroke-linecap="round" stroke-linejoin="round"/>
</svg>
